<svg width="10" height="9" viewBox="0 0 10 9" fill="none" xmlns="http://www.w3.org/2000/svg">
<path fill-rule="evenodd" clip-rule="evenodd" d="M0.646447 0.146447C0.841709 -0.0488155 1.15829 -0.0488155 1.35355 0.146447L5 3.79289L8.64645 0.146447C8.84171 -0.0488155 9.15829 -0.0488155 9.35355 0.146447C9.54882 0.341709 9.54882 0.658291 9.35355 0.853553L5.70711 4.5L9.35355 8.14645C9.54882 8.34171 9.54882 8.65829 9.35355 8.85355C9.15829 9.04882 8.84171 9.04882 8.64645 8.85355L5 5.20711L1.35355 8.85355C1.15829 9.04882 0.841709 9.04882 0.646447 8.85355C0.451184 8.65829 0.451184 8.34171 0.646447 8.14645L4.29289 4.5L0.646447 0.853553C0.451184 0.658291 0.451184 0.341709 0.646447 0.146447Z" fill="#1D1D1D"/>
</svg>
